<svg height="162" viewBox="0 0 162 162" width="162" xmlns="http://www.w3.org/2000/svg" xmlns:xlink="http://www.w3.org/1999/xlink"><defs><linearGradient id="a" x1="50%" x2="50%" y1="1.981748%" y2="100%"><stop offset="0" stop-color="#676d80"/><stop offset="1" stop-color="#3e4356"/></linearGradient><rect id="b" height="150" rx="75" width="150"/><filter id="c" height="115.3%" width="115.3%" x="-7.7%" y="-4.3%"><feOffset dx="0" dy="5" in="SourceAlpha" result="shadowOffsetOuter1"/><feGaussianBlur in="shadowOffsetOuter1" result="shadowBlurOuter1" stdDeviation="3"/><feColorMatrix in="shadowBlurOuter1" type="matrix" values="0 0 0 0 0   0 0 0 0 0   0 0 0 0 0  0 0 0 0.4 0"/></filter><mask id="d" fill="#fff"><path d="m.1587013.011475s.36805195 1.439775 2.14179221 3.1998375c1.30033766 1.289925 1.85714285 2.529225 1.85714285 2.529225h12.17779224s-6.2774805 9.8361-10.41316886 21.186225h7.24657146c6.0492207-18.0397125 12.6133766-26.9152875 12.6133766-26.9152875z" fill="#fff" fill-rule="evenodd"/></mask></defs><g fill="none" fill-rule="evenodd"><g opacity=".757346" transform="translate(6 1)"><use fill="#000" filter="url(#c)" xlink:href="#b"/><use fill="url(#a)" fill-rule="evenodd" xlink:href="#b"/></g><g fill="#fff" fill-rule="nonzero"><path d="m.1587013.011475h25.6238442v26.9152875h-25.6238442z" mask="url(#d)" transform="translate(106 63)"/><g><path d="m.09301579 16.6103416c2.09760789-5.2673602 6.0293921-9.85183228 11.00709471-12.7832298 4.9848316-2.91021739 10.9775606-4.18307453 16.7727158-3.39121118 1.4587184.1397205 2.8753421.51515528 4.2997737.86736025l2.0741842.73481366c.6969395.23332299 1.3371869.60226708 2.0093447.89913044 2.6326185 1.30223602 5.0659658 3.01748447 7.1883553 5.07434783 2.0894605 2.0913665 3.8234921 4.5311801 5.1650921 7.1704969.3065448.6743478.6816632 1.3193168.9281211 2.0199689l.7672105 2.0896584c.3839447 1.4330746.7902947 2.8647826.9617289 4.3439752.8646395 5.8815838-.2994157 12.0087888-3.1214605 17.2109006-1.4536263 2.5812422-3.3207316 4.9090062-5.4801237 6.9036956-1.063571 1.021087-2.2605552 1.8795653-3.4592368 2.7254038l-1.8966395 1.115031c-.6354947.3634783-1.3205526.6333541-1.9781131.9524224-2.6832 1.1563664-5.5324027 1.9226087-8.4304895 2.1760869-1.45125.0529504-2.9008026.1332299-4.3445842.013323-1.4407263-.1318633-2.8739842-.3368323-4.2743132-.6869875-5.6019947-1.3886646-10.67033683-4.6681678-14.13704209-9.1494721 3.8971579 4.0945963 8.99129999 6.9142857 14.40556579 7.9025776 5.4044211 1.0572982 11.0682.2374224 15.9430421-2.0995652 4.9043763-2.3222981 8.9427553-6.2969876 11.5071395-11.0334782 2.4998842-4.769969 3.5373158-10.3263354 2.7106973-15.6620187-.1419-1.3432298-.5075131-2.6406832-.8408763-3.9449689l-.6833605-1.8997205c-.2159053-.6384783-.5584342-1.2236646-.8296737-1.8392547-1.1952868-2.4114596-2.7775737-4.6213664-4.6358526-6.57232916-1.8956211-1.91543479-4.0872632-3.53229814-6.4758-4.77953416-.6107132-.28285715-1.1905342-.64121118-1.8263684-.86633541l-1.88985-.72559006c-1.297129-.36552795-2.5932395-.76521739-3.9385737-.93978261-5.3429763-.89981366-10.9904605-.01024845-15.8843132 2.50403727-4.91252366 2.49822981-8.99808945 6.65055903-11.61339471 11.67024843" transform="translate(94.4 49)"/><path d="m.15785526.25621118h11.33808154c4.0750421 0 7.0865132 1.88981366 7.0865132 8.12975155 0 6.45378887-2.6927053 7.23813667-4.1453132 7.70170807l4.9250843 10.2689441h-5.5986l-4.28721321-9.8764286-4.35816315-.4990993v10.3755279h-4.96038948zm10.87775524 11.80245342c1.7007632 0 2.5511448-.499441 2.5511448-3.67270187 0-2.95940993-.9922816-3.70822981-2.5511448-3.70822981h-5.88172103v7.38093168z" transform="translate(17 63.006211)"/><path d="m.15412105 12.9277329c0-2.7807453 1.48825263-5.20586955 5.52765-5.20586955 0 0 5.52731055.03586957 5.52731055 0 0 0 .0353052-1.17652174 0-1.21204969 0-2.03192546-.9566369-2.31751552-2.51550002-2.31751552-1.6654579 0-6.37803158.28559006-7.90158947.39217391v-3.10220497c2.48053421-.96267081 5.06698421-1.24791925 8.57476578-1.24791925 4.03905791 0 6.80271321 1.39037267 6.80271321 6.09714285v13.19282612h-3.9328027l-1.0275868-2.0681367c-.2125105.3921739-2.86991055 2.3530435-5.74016055 2.2819876-3.61369737-.1065838-5.3148-2.567236-5.3148-5.027205zm6.73244211 2.8166149c2.05483421 0 4.32251844-1.4969565 4.32251844-1.4969565v-3.4588509l-4.57067371.3563043c-1.31104736.1072671-1.52355799 1.1051242-1.52355799 1.9260249v.9264596c-.00033937 1.5690373.85038168 1.7470186 1.77171326 1.7470186z" transform="translate(36.35 69.838509)"/><path d="m6.22662632 8.84611801c1.59450789 0 3.96844738.42804348 5.70451578 1.24791929v-10.01922364h4.960729v27.98987574h-4.1100079l-.8507211-1.9253416c-1.2044526.9623292-3.47247631 2.1391926-5.70451578 2.1391926-4.60631843 0-6.12953685-3.7078882-6.12953685-9.5908385.00033948-6.0619566.92133158-9.84158389 6.12953685-9.84158389m1.31138684 15.15369569c1.84266316 0 3.33091574-.4635715 4.39346844-1.1409938v-9.3776708c-1.3107079-.4987578-2.69270528-.7129503-4.39346844-.7129503-1.5945079 0-2.48019484.8916149-2.48019484 5.7404969-.00033937 4.2076708.85004221 5.491118 2.48019484 5.491118" transform="translate(53.663158 61.298137)"/><path d="m5.49641842.24937888 3.25996579 13.26388202c.38937632 1.4979813 1.59450789 1.3548447 1.87762899 1.3903726l3.7555973-14.65425462h5.1732395l-6.5195921 24.92319872-2.58645 3.637174h-3.54342632l2.6574-9.6273914c-2.62175526 0-4.67692895-1.3189751-5.59826053-4.8130124l-3.68464737-14.11996892z" transform="translate(70.976316 70.180124)"/><path d="m8.64266053.0710559c6.48428687 0 8.57476577 2.38925466 8.57476577 9.91263975 0 7.02394415-1.9845631 9.37698755-8.57476577 9.37698755-6.48462632 0-8.57442632-2.6024223-8.57442632-9.37698755 0-7.73791925 2.23203947-9.91263975 8.57442632-9.91263975m0 15.2606211c2.79862107 0 3.61403687-.3563043 3.61403687-5.34798135 0-5.31279503-.6378711-5.91881987-3.61403687-5.91881987-2.94052106 0-3.61403693.60602484-3.61403693 5.91881987-.00033939 4.88406835.99194219 5.34798135 3.61403693 5.34798135" transform="translate(89.986842 70.180124)"/></g></g></g></svg>