<?xml version="1.0" encoding="UTF-8"?>
<svg width="252px" height="59px" viewBox="0 0 252 59" version="1.1" xmlns="http://www.w3.org/2000/svg" xmlns:xlink="http://www.w3.org/1999/xlink">
    <title>Group 5 Copy@1x</title>
    <defs>
        <path d="M6.9388939e-16,-3.92047506e-16 C6.9388939e-16,-3.92047506e-16 0.395842105,1.54923158 2.30351053,3.4431 C3.70203158,4.83108947 4.30087895,6.16460526 4.30087895,6.16460526 L17.3981684,6.16460526 C17.3981684,6.16460526 10.6467,16.7484789 6.19874211,28.9614789 L13.9924737,28.9614789 C20.4984474,9.55032631 27.5582369,-3.92047506e-16 27.5582369,-3.92047506e-16 L6.9388939e-16,-3.92047506e-16 Z" id="path-1"></path>
        <radialGradient cx="49.9910392%" cy="50.0336336%" fx="49.9910392%" fy="50.0336336%" r="45.508038%" gradientTransform="translate(0.499910,0.500336),scale(1.000000,0.951561),rotate(-0.000003),translate(-0.499910,-0.500336)" id="radialGradient-3">
            <stop stop-color="#EB313D" offset="0%"></stop>
            <stop stop-color="#ED1C28" offset="52.53%"></stop>
            <stop stop-color="#B8283A" offset="100%"></stop>
        </radialGradient>
        <linearGradient x1="-1.01289057e-13%" y1="50.0063719%" x2="100%" y2="50.0063719%" id="linearGradient-4">
            <stop stop-color="#FAEF52" offset="4%"></stop>
            <stop stop-color="#D6B23A" offset="41%"></stop>
            <stop stop-color="#FDDB5C" offset="84%"></stop>
        </linearGradient>
        <linearGradient x1="0%" y1="50%" x2="100%" y2="50%" id="linearGradient-5">
            <stop stop-color="#FAEF52" offset="4%"></stop>
            <stop stop-color="#D6B23A" offset="41%"></stop>
            <stop stop-color="#FDDB5C" offset="84%"></stop>
        </linearGradient>
        <linearGradient x1="0%" y1="50%" x2="100%" y2="50%" id="linearGradient-6">
            <stop stop-color="#F6E4AB" offset="0%"></stop>
            <stop stop-color="#D3C383" offset="0%"></stop>
            <stop stop-color="#F4D352" offset="22%"></stop>
            <stop stop-color="#EECC59" offset="30%"></stop>
            <stop stop-color="#E4C068" offset="48%"></stop>
            <stop stop-color="#E1BC6D" offset="63%"></stop>
            <stop stop-color="#D3C383" offset="79%"></stop>
            <stop stop-color="#F2E38A" offset="88%"></stop>
            <stop stop-color="#EEDD94" offset="100%"></stop>
        </linearGradient>
        <linearGradient x1="-1.01289057e-13%" y1="49.9936281%" x2="100%" y2="49.9936281%" id="linearGradient-7">
            <stop stop-color="#F6E4AB" offset="0%"></stop>
            <stop stop-color="#D3C383" offset="0%"></stop>
            <stop stop-color="#876D24" offset="16%"></stop>
            <stop stop-color="#977A2C" offset="38%"></stop>
            <stop stop-color="#B69547" offset="45%"></stop>
            <stop stop-color="#CDAA5C" offset="51%"></stop>
            <stop stop-color="#DCB768" offset="58%"></stop>
            <stop stop-color="#E1BC6D" offset="63%"></stop>
            <stop stop-color="#D3C383" offset="79%"></stop>
            <stop stop-color="#F2E38A" offset="88%"></stop>
            <stop stop-color="#EEDD94" offset="100%"></stop>
        </linearGradient>
        <linearGradient x1="0%" y1="50%" x2="100%" y2="50%" id="linearGradient-8">
            <stop stop-color="#F6E4AB" offset="0%"></stop>
            <stop stop-color="#D3C383" offset="0%"></stop>
            <stop stop-color="#4B471B" offset="20%"></stop>
            <stop stop-color="#876D24" offset="28%"></stop>
            <stop stop-color="#95792F" offset="31%"></stop>
            <stop stop-color="#B6964A" offset="38%"></stop>
            <stop stop-color="#CDAB5D" offset="44%"></stop>
            <stop stop-color="#DCB769" offset="50%"></stop>
            <stop stop-color="#E1BC6D" offset="56%"></stop>
            <stop stop-color="#D3C383" offset="79%"></stop>
            <stop stop-color="#F2E38A" offset="88%"></stop>
            <stop stop-color="#EEDD94" offset="100%"></stop>
        </linearGradient>
        <linearGradient x1="0.00998402556%" y1="50.0176243%" x2="100.009984%" y2="50.0176243%" id="linearGradient-9">
            <stop stop-color="#F6E4AB" offset="0%"></stop>
            <stop stop-color="#D3C383" offset="0%"></stop>
            <stop stop-color="#4B471B" offset="20%"></stop>
            <stop stop-color="#876D24" offset="28%"></stop>
            <stop stop-color="#95792F" offset="31%"></stop>
            <stop stop-color="#B6964A" offset="38%"></stop>
            <stop stop-color="#CDAB5D" offset="44%"></stop>
            <stop stop-color="#DCB769" offset="50%"></stop>
            <stop stop-color="#E1BC6D" offset="56%"></stop>
            <stop stop-color="#D3C383" offset="79%"></stop>
            <stop stop-color="#F2E38A" offset="88%"></stop>
            <stop stop-color="#EEDD94" offset="100%"></stop>
        </linearGradient>
        <linearGradient x1="-171.186743%" y1="50.0117288%" x2="-169.404847%" y2="50.0117288%" id="linearGradient-10">
            <stop stop-color="#F6E4AB" offset="0%"></stop>
            <stop stop-color="#D3C383" offset="0%"></stop>
            <stop stop-color="#876D24" offset="16%"></stop>
            <stop stop-color="#977A2C" offset="38%"></stop>
            <stop stop-color="#B69547" offset="45%"></stop>
            <stop stop-color="#CDAA5C" offset="51%"></stop>
            <stop stop-color="#DCB768" offset="58%"></stop>
            <stop stop-color="#E1BC6D" offset="63%"></stop>
            <stop stop-color="#D3C383" offset="79%"></stop>
            <stop stop-color="#F2E38A" offset="88%"></stop>
            <stop stop-color="#EEDD94" offset="100%"></stop>
        </linearGradient>
        <linearGradient x1="0.0139062717%" y1="50.0506791%" x2="100.027813%" y2="50.0506791%" id="linearGradient-11">
            <stop stop-color="#F6E4AB" offset="0%"></stop>
            <stop stop-color="#D3C383" offset="0%"></stop>
            <stop stop-color="#F4D352" offset="22%"></stop>
            <stop stop-color="#EECC59" offset="30%"></stop>
            <stop stop-color="#E4C068" offset="48%"></stop>
            <stop stop-color="#E1BC6D" offset="63%"></stop>
            <stop stop-color="#D3C383" offset="79%"></stop>
            <stop stop-color="#F2E38A" offset="88%"></stop>
            <stop stop-color="#EEDD94" offset="100%"></stop>
        </linearGradient>
    </defs>
    <g id="Page-1" stroke="none" stroke-width="1" fill="none" fill-rule="evenodd">
        <g id="Group-5-Copy">
            <g id="radyo7-logo">
                <g id="Rectangle-path-Clipped" transform="translate(95.149184, 15.047029)">
                    <mask id="mask-2" fill="white">
                        <use xlink:href="#path-1"></use>
                    </mask>
                    <g id="path-1"></g>
                    <rect id="Rectangle-path" fill="url(#radialGradient-3)" fill-rule="nonzero" mask="url(#mask-2)" x="6.9388939e-16" y="-3.92047506e-16" width="27.5586" height="28.9614789"></rect>
                </g>
                <g id="Group" fill="#4B4F5F" fill-rule="nonzero">
                    <g id="Clipped" transform="translate(82.730637, 0.000000)">
                        <path d="M-1.08246745e-15,17.4398756 C2.24395263,11.840344 6.45004737,6.96676507 11.7750315,3.85050717 C17.1076421,0.756765072 23.5184684,-0.596361243 29.7179368,0.245438757 C31.2784263,0.393970336 32.7938842,0.793080863 34.3176947,1.16749665 L36.5365894,1.94864928 C37.2821526,2.19668612 37.9670684,2.58889665 38.686121,2.90448086 C41.5024105,4.28883875 44.1055263,6.11225454 46.3759894,8.29882823 C48.6112263,10.5220809 50.4662368,13.1157546 51.9014368,15.9215125 C52.2293684,16.6383861 52.6306579,17.3240282 52.8943105,18.0688651 L53.7150473,20.2903019 C54.1257789,21.8137493 54.5604789,23.335744 54.7438736,24.9082177 C55.6688368,31.1607072 54.4235684,37.6743072 51.4046368,43.2044756 C49.8495947,45.9484967 47.8522263,48.4230546 45.5421789,50.5435335 C44.4044052,51.6290125 43.1239105,52.5416282 41.8416,53.4408072 L39.8126368,54.6261546 C39.1328052,55.0125546 38.3999526,55.2994493 37.6965158,55.6386388 C34.8261158,56.8679282 31.7781315,57.6824914 28.6778526,57.9519546 C27.1253526,58.008244 25.5746684,58.0935861 24.0301579,57.9661177 C22.4889158,57.8259388 20.9556631,57.608044 19.4576368,57.2358072 C13.4648052,55.7595704 8.0428579,52.2732546 4.33428948,47.5093493 C8.50334211,51.8621598 13.9528894,54.8596651 19.7448947,55.9102809 C25.5263684,57.0342546 31.5852947,56.1626756 36.8002421,53.6783125 C42.0467842,51.2095651 46.3669105,46.984223 49.1102052,41.9490388 C51.7845,36.8782651 52.8943105,30.9715019 52.010021,25.2993388 C51.858221,23.8714019 51.4671,22.4921282 51.1104789,21.1055914 L50.3794421,19.0860704 C50.1484736,18.4073282 49.7820473,17.7852388 49.4918842,17.1308282 C48.2132052,14.5672967 46.5205263,12.2180282 44.5326,10.1440335 C42.5047263,8.10780717 40.1601789,6.38898086 37.605,5.06309139 C36.9516789,4.76239665 36.3314052,4.38144402 35.6512105,4.14212296 L33.6295105,3.3707756 C32.2418842,2.98219665 30.8553473,2.55730191 29.4161526,2.37172823 C23.7004105,1.41517033 17.6589158,2.36083349 12.4236315,5.0336756 C7.16837369,7.68944928 2.79776842,12.1036335 -1.08246745e-15,17.4398756" id="Shape"></path>
                    </g>
                    <g id="Clipped" transform="translate(0.000000, 14.943892)">
                        <path d="M-8.8817842e-16,5.55111512e-16 L12.1291105,5.55111512e-16 C16.4884579,5.55111512e-16 19.7100316,2.00898947 19.7100316,8.64243158 C19.7100316,15.5032105 16.8294632,16.3370211 15.2755105,16.8298263 L20.5442053,27.7463527 L14.5550053,27.7463527 L9.96868418,17.2470948 L5.30646316,16.7165211 L5.30646316,27.7463527 L-8.8817842e-16,27.7463527 L-8.8817842e-16,5.55111512e-16 Z M11.6366684,12.5467421 C13.4560895,12.5467421 14.3658,12.0158053 14.3658,8.64243158 C14.3658,5.49639474 13.3042895,4.70035263 11.6366684,4.70035263 L5.34459474,4.70035263 L5.34459474,12.5467421 L11.6366684,12.5467421 Z" id="Shape"></path>
                    </g>
                    <g id="Clipped" transform="translate(20.696005, 22.183808)">
                        <path d="M1.94289029e-16,13.4938579 C1.94289029e-16,10.5377526 1.59208421,7.95969473 5.9133,7.95969473 C5.9133,7.95969473 11.8262368,7.99782631 11.8262368,7.95969473 C11.8262368,7.95969473 11.8640052,6.70897894 11.8262368,6.67121052 C11.8262368,4.51114736 10.8028579,4.20754736 9.13523685,4.20754736 C7.35358421,4.20754736 2.31222632,4.51114736 0.682373684,4.62445263 L0.682373684,1.32661579 C3.33596843,0.303236842 6.10286843,8.32667268e-17 9.85537892,8.32667268e-17 C14.1762316,8.32667268e-17 17.1327,1.47805263 17.1327,6.4816421 L17.1327,20.5064369 L12.9255158,20.5064369 L11.8262368,18.307879 C11.5989,18.7247842 8.7561,20.8093105 5.6856,20.7337737 C1.81978421,20.6204684 1.94289029e-16,18.0046421 1.94289029e-16,15.3895421 L1.94289029e-16,13.4938579 Z M7.20214737,16.4880948 C9.40034211,16.4880948 11.8262368,14.8967369 11.8262368,14.8967369 L11.8262368,11.2197632 L6.93667895,11.5985369 C5.53416316,11.7125684 5.30682621,12.7733526 5.30682621,13.6460211 L5.30682621,14.6309053 C5.30646316,16.2988895 6.21653685,16.4880948 7.20214737,16.4880948 Z" id="Shape"></path>
                    </g>
                    <g id="Clipped" transform="translate(39.156048, 12.935265)">
                        <path d="M6.55717895,9.3244421 C8.26293158,9.3244421 10.8024947,9.77947895 12.6596842,10.6510579 L12.6596842,7.07767178e-16 L17.9665105,7.07767178e-16 L17.9665105,29.7549789 L13.5697579,29.7549789 L12.6596842,27.708221 C11.3712,28.7312368 8.9449421,29.9823158 6.55717895,29.9823158 C1.62948947,29.9823158 6.52256027e-16,26.0406 6.52256027e-16,19.7866579 C0.000363158,13.342421 0.985610522,9.3244421 6.55717895,9.3244421 M7.96005789,25.4337631 C9.93127894,25.4337631 11.5233631,24.9409579 12.6600473,24.2208158 L12.6600473,14.2517684 C11.2578947,13.7215579 9.77947895,13.4938579 7.96005789,13.4938579 C6.25430526,13.4938579 5.3068262,14.4417 5.3068262,19.5963631 C5.30646316,24.0693789 6.21617368,25.4337631 7.96005789,25.4337631" id="Shape"></path>
                    </g>
                    <g id="Clipped" transform="translate(57.881194, 22.562944)">
                        <path d="M5.57193157,-6.10622664e-16 L9.05933684,14.1003315 C9.47587894,15.6927789 10.7650895,15.5406158 11.0679632,15.5783842 L15.0855789,-6.10622664e-16 L20.6197421,-6.10622664e-16 L13.6452947,26.4949105 L10.8783947,30.3614526 L7.08775263,30.3614526 L9.9305526,20.1269368 C7.12588421,20.1269368 4.92732631,18.7247842 3.94171578,15.0104052 L4.99600361e-16,-6.10622664e-16 L5.57193157,-6.10622664e-16 Z" id="Shape"></path>
                    </g>
                    <g id="Clipped" transform="translate(77.983073, 22.373375)">
                        <path d="M9.1726421,0 C16.1093211,0 18.3456474,2.53992632 18.3456474,10.5377527 C18.3456474,18.0046421 16.2226264,20.5060737 9.1726421,20.5060737 C2.2356,20.5060737 -1.2490009e-16,17.7395369 -1.2490009e-16,10.5377527 C-1.2490009e-16,2.31186316 2.38776315,0 9.1726421,0 M9.1726421,16.2229895 C12.1665158,16.2229895 13.0388211,15.8442158 13.0388211,10.5377527 C13.0388211,4.88992105 12.3564474,4.24567895 9.1726421,4.24567895 C6.02696842,4.24567895 5.30646306,4.88992105 5.30646306,10.5377527 C5.3061,15.7298211 6.36761052,16.2229895 9.1726421,16.2229895" id="Shape"></path>
                    </g>
                </g>
            </g>
            <rect id="Rectangle" fill="#000000" opacity="0.5" x="152" y="16" width="1" height="26" rx="0.5"></rect>
            <g id="Group-Copy-2" transform="translate(166.000000, 7.000000)" fill-rule="nonzero">
                <path d="M4.78423423,9.62159292 L2.76207207,9.30230088 C2.94414414,7.7759292 3.33927928,6.51433628 3.9436036,5.51362832 C4.7454955,4.15858407 5.87279279,3.10336283 7.33711712,2.3479646 C8.79756757,1.59256637 10.474955,1.21486726 12.3731532,1.21486726 C14.2713514,1.21486726 15.8828829,1.54973451 17.3007207,2.21946903 C18.7185586,2.88920354 19.7916216,3.77699115 20.5121622,4.88672566 C21.2365766,5.99256637 21.5968468,7.1879646 21.5968468,8.47292035 C21.5968468,9.60212389 21.3218018,10.6106195 20.7755856,11.4984071 C20.2293694,12.3861947 19.4158559,13.1844248 18.3389189,13.8892035 C17.5835135,14.3837168 16.5956757,14.8120354 15.3754054,15.1780531 C16.677027,15.3610619 17.7423423,15.6647788 18.5713514,16.0892035 C19.9155856,16.7823009 20.9731532,17.7362832 21.7440541,18.9511504 C22.514955,20.1660177 22.9023423,21.5015929 22.9023423,22.9539823 C22.9023423,25.2863717 21.8835135,27.3345133 19.8458559,29.1100885 C17.8081982,30.8817699 15.1778378,31.7695575 11.947027,31.7695575 C8.71621622,31.7695575 6.07810811,30.9168142 3.90099099,29.2074336 C2.0763964,27.7550442 1.16216216,26.2909735 1.16216216,24.8230088 C1.16216216,24.2428319 1.34810811,23.76 1.72,23.3706195 C2.09189189,22.9812389 2.56063063,22.7865487 3.12234234,22.7865487 C3.73828829,22.7865487 4.26513514,23.0279646 4.70288288,23.5030088 C4.94306306,23.7716814 5.21423423,24.4102655 5.52414414,25.4226549 C5.95801802,26.8438938 6.69792793,27.9263717 7.73612613,28.6739823 C8.77432432,29.4215929 10.0681982,29.7915044 11.6138739,29.7915044 C12.9890991,29.7915044 14.220991,29.4877876 15.3095495,28.8842478 C16.3981081,28.2768142 17.2581081,27.420177 17.8895495,26.3065487 C18.520991,25.1929204 18.8386486,23.9741593 18.8386486,22.6502655 C18.8386486,21.579469 18.6100901,20.6176991 18.152973,19.7649558 C17.6958559,18.9122124 17.045045,18.1918584 16.2044144,17.5961062 C15.5574775,17.1327434 14.7323423,16.8056637 13.729009,16.6226549 C12.7256757,16.439646 11.8230631,16.3461947 11.0211712,16.3461947 L9.06099099,16.3461947 L9.06099099,14.2941593 L10.3083784,14.2941593 C11.548018,14.2941593 12.7295495,14.1500885 13.8568468,13.8619469 C14.9841441,13.5738053 15.8828829,12.9741593 16.5608108,12.0707965 C17.2348649,11.1674336 17.5757658,10.1433628 17.5757658,8.99858407 C17.5757658,8.00955752 17.3394595,7.12176991 16.8668468,6.33132743 C16.3942342,5.54088496 15.7046847,4.9139823 14.7904505,4.44672566 C13.8762162,3.97946903 12.8225225,3.74973451 11.6254955,3.74973451 C10.4284685,3.74973451 9.3863964,3.99115044 8.40630631,4.4700885 C7.43009009,4.94902655 6.64369369,5.59150442 6.05486486,6.39752212 C5.46216216,7.20353982 5.04378378,8.27433628 4.78810811,9.61769912 L4.78423423,9.62159292 Z" id="Path" fill="url(#linearGradient-4)"></path>
                <path d="M43.0154955,0.49840708 C31.9052252,0.49840708 22.9023423,7.21911504 22.9023423,15.5051327 C22.9023423,23.7911504 31.9090991,30.5118584 43.0154955,30.5118584 C54.1218919,30.5118584 63.1286486,23.7911504 63.1286486,15.5051327 C63.1286486,7.21911504 54.1218919,0.49840708 43.0154955,0.49840708 Z M40.5672072,28.2067257 C31.6495495,28.2067257 24.4209009,22.4945133 24.4209009,15.4506195 C24.4209009,8.40672566 31.6495495,2.69451327 40.5672072,2.69451327 C49.4848649,2.69451327 56.7135135,8.40672566 56.7135135,15.4506195 C56.7135135,22.4945133 49.4848649,28.2067257 40.5672072,28.2067257 Z" id="Shape" fill="url(#linearGradient-5)"></path>
                <path d="M59.5685586,28.8024779 C59.5685586,29.4332743 59.0610811,29.9433628 58.4335135,29.9433628 C57.8059459,29.9433628 57.2984685,29.4332743 57.2984685,28.8024779 C57.2984685,28.1716814 57.8059459,27.6615929 58.4335135,27.6615929 C59.0610811,27.6615929 59.5685586,28.1716814 59.5685586,28.8024779 Z" id="Path" fill="url(#linearGradient-6)"></path>
                <path d="M4.78423423,9.12318584 L2.76207207,8.80389381 C2.94414414,7.27752212 3.33927928,6.0159292 3.9436036,5.01522124 C4.7454955,3.66017699 5.87279279,2.60495575 7.33711712,1.84955752 C8.79756757,1.09415929 10.474955,0.716460177 12.3731532,0.716460177 C14.2713514,0.716460177 15.8828829,1.05132743 17.3007207,1.72106195 C18.7185586,2.39079646 19.7916216,3.27858407 20.5121622,4.38831858 C21.2365766,5.49415929 21.5968468,6.68955752 21.5968468,7.97451327 C21.5968468,9.10371681 21.3218018,10.1122124 20.7755856,11 C20.2293694,11.8877876 19.4158559,12.6860177 18.3389189,13.3907965 C17.5835135,13.8853097 16.5956757,14.3136283 15.3754054,14.679646 C16.677027,14.8626549 17.7423423,15.1663717 18.5713514,15.5907965 C19.9155856,16.2838938 20.9731532,17.2378761 21.7440541,18.4527434 C22.514955,19.6676106 22.9023423,21.0031858 22.9023423,22.4555752 C22.9023423,24.7879646 21.8835135,26.8361062 19.8458559,28.6116814 C17.8081982,30.3833628 15.1778378,31.2711504 11.947027,31.2711504 C8.71621622,31.2711504 6.07810811,30.4184071 3.90099099,28.7090265 C2.0763964,27.2566372 1.16216216,25.7925664 1.16216216,24.3246018 C1.16216216,23.7444248 1.34810811,23.2615929 1.72,22.8722124 C2.09189189,22.4828319 2.56063063,22.2881416 3.12234234,22.2881416 C3.73828829,22.2881416 4.26513514,22.5295575 4.70288288,23.0046018 C4.94306306,23.2732743 5.21423423,23.9118584 5.52414414,24.9242478 C5.95801802,26.3454867 6.69792793,27.4279646 7.73612613,28.1755752 C8.77432432,28.9231858 10.0681982,29.2930973 11.6138739,29.2930973 C12.9890991,29.2930973 14.220991,28.9893805 15.3095495,28.3858407 C16.3981081,27.7784071 17.2581081,26.9217699 17.8895495,25.8081416 C18.520991,24.6945133 18.8386486,23.4757522 18.8386486,22.1518584 C18.8386486,21.0810619 18.6100901,20.119292 18.152973,19.2665487 C17.6958559,18.4138053 17.045045,17.6934513 16.2044144,17.0976991 C15.5574775,16.6343363 14.7323423,16.3072566 13.729009,16.1242478 C12.7256757,15.9412389 11.8230631,15.8477876 11.0211712,15.8477876 L9.06099099,15.8477876 L9.06099099,13.7957522 L10.3083784,13.7957522 C11.548018,13.7957522 12.7295495,13.6516814 13.8568468,13.3635398 C14.9841441,13.0753982 15.8828829,12.4757522 16.5608108,11.5723894 C17.2348649,10.6690265 17.5757658,9.64495575 17.5757658,8.50017699 C17.5757658,7.51115044 17.3394595,6.62336283 16.8668468,5.83292035 C16.3942342,5.04247788 15.7046847,4.41557522 14.7904505,3.94831858 C13.8762162,3.48106195 12.8225225,3.25132743 11.6254955,3.25132743 C10.4284685,3.25132743 9.3863964,3.49274336 8.40630631,3.97168142 C7.43009009,4.45061947 6.64369369,5.09309735 6.05486486,5.89911504 C5.46216216,6.70513274 5.04378378,7.7759292 4.78810811,9.11929204 L4.78423423,9.12318584 Z" id="Path" fill="url(#linearGradient-7)"></path>
                <path d="M43.0154955,0 C31.9052252,0 22.9023423,6.72070796 22.9023423,15.0067257 C22.9023423,23.2927434 31.9090991,30.0134513 43.0154955,30.0134513 C54.1218919,30.0134513 63.1286486,23.2927434 63.1286486,15.0067257 C63.1286486,6.72070796 54.1218919,0 43.0154955,0 Z M40.5672072,27.7083186 C31.6495495,27.7083186 24.4209009,21.9961062 24.4209009,14.9522124 C24.4209009,7.90831858 31.6495495,2.19610619 40.5672072,2.19610619 C49.4848649,2.19610619 56.7135135,7.90831858 56.7135135,14.9522124 C56.7135135,21.9961062 49.4848649,27.7083186 40.5672072,27.7083186 Z" id="Shape" fill="url(#linearGradient-8)"></path>
                <path d="M55.4467568,19.9129204 C52.9984685,24.4920354 47.2573874,27.7083186 40.5672072,27.7083186 C33.877027,27.7083186 27.5936036,24.180531 25.3583784,19.2470796 C24.7695495,19.1575221 24.1845946,19.0640708 23.6073874,18.9667257 C25.9355856,25.3330973 33.7414414,30.0134513 43.0116216,30.0134513 C52.2818018,30.0134513 60.0682883,25.3447788 62.4081081,18.9900885 C60.1845045,19.36 57.8563063,19.6715044 55.4467568,19.9129204 L55.4467568,19.9129204 Z" id="Path" fill="url(#linearGradient-9)"></path>
                <path d="M15.3754054,14.679646 C16.677027,14.8626549 17.7423423,15.1663717 18.5713514,15.5907965 C19.9155856,16.2838938 20.9731532,17.2378761 21.7440541,18.4527434 C22.514955,19.6676106 22.9023423,21.0031858 22.9023423,22.4555752 C22.9023423,24.7879646 21.8835135,26.8361062 19.8458559,28.6116814 C17.8081982,30.3833628 15.1778378,31.2711504 11.947027,31.2711504 C8.71621622,31.2711504 6.07810811,30.4184071 3.90099099,28.7090265 C2.0763964,27.2566372 1.16216216,25.7925664 1.16216216,24.3246018 C1.16216216,23.7444248 1.34810811,23.2615929 1.72,22.8722124 C2.09189189,22.4828319 2.56063063,22.2881416 3.12234234,22.2881416 C3.73828829,22.2881416 4.26513514,22.5295575 4.70288288,23.0046018 C4.94306306,23.2732743 5.21423423,23.9118584 5.52414414,24.9242478 C5.95801802,26.3454867 6.69792793,27.4279646 7.73612613,28.1755752 C8.77432432,28.9231858 10.0681982,29.2930973 11.6138739,29.2930973 C12.9890991,29.2930973 14.220991,28.9893805 15.3095495,28.3858407 C16.3981081,27.7784071 17.2581081,26.9217699 17.8895495,25.8081416 C18.520991,24.6945133 18.8386486,23.4757522 18.8386486,22.1518584 C18.8386486,21.0810619 18.6100901,20.119292 18.152973,19.2665487 C17.6958559,18.4138053 17.045045,17.6934513 16.2044144,17.0976991 C15.5574775,16.6343363 14.7323423,16.3072566 13.729009,16.1242478 C12.7256757,15.9412389 11.8230631,15.8477876 11.0211712,15.8477876 L9.06099099,15.8477876 L15.3754054,14.6718584 L15.3754054,14.679646 Z" id="Path" fill="url(#linearGradient-10)"></path>
                <path d="M67.9283784,29.8654867 C68.339009,29.5578761 68.7302703,29.2307965 69.1021622,28.8881416 C69.4740541,28.5454867 69.814955,28.1989381 70.1171171,27.8484956 C70.1713514,27.7861947 70.2294595,27.72 70.2914414,27.6460177 C70.3534234,27.5759292 70.4076577,27.5019469 70.4502703,27.4318584 L70.6555856,27.1670796 L71.3722523,26.279292 C71.5581982,26.0456637 71.748018,25.8120354 71.9378378,25.5745133 C72.1276577,25.3369912 72.3174775,25.1072566 72.5034234,24.8853097 C72.2554955,25.259115 72.0424324,25.5861947 71.8681081,25.8626549 C71.6937838,26.139115 71.5427027,26.3883186 71.4148649,26.6063717 C71.287027,26.8244248 71.1708108,27.0230088 71.0662162,27.2021239 C70.9654955,27.3812389 70.8647748,27.5642478 70.7640541,27.7511504 C70.612973,28.0276106 70.4735135,28.3274336 70.3418018,28.6428319 C70.213964,28.9621239 70.1481081,29.2502655 70.1481081,29.5072566 C70.1481081,29.740885 70.2217117,29.9316814 70.365045,30.0835398 C70.5083784,30.2353982 70.7872973,30.3132743 71.2018018,30.3132743 C71.3954955,30.3132743 71.6124324,30.2626549 71.840991,30.1653097 C72.0734234,30.0679646 72.3097297,29.9355752 72.5537838,29.7681416 C72.7978378,29.6046018 73.0457658,29.4021239 73.3014414,29.1723894 C73.5532432,28.9387611 73.805045,28.6895575 74.0568468,28.420885 C74.235045,28.2261947 74.4171171,28.0120354 74.6030631,27.7823009 C74.7541441,27.599292 74.9013514,27.4162832 75.0485586,27.2410619 L75.0563063,27.2527434 C75.0911712,27.2099115 75.1376577,27.1515044 75.1957658,27.0775221 C75.2538739,27.0074336 75.3003604,26.9490265 75.3352252,26.9023009 L75.3352252,26.9139823 L75.4669369,26.7387611 L75.7342342,26.4038938 C76.1177477,25.9132743 76.5051351,25.4421239 76.8963964,24.9943363 C76.6910811,25.2980531 76.4857658,25.6212389 76.2765766,25.9677876 C76.0673874,26.3104425 75.8775676,26.660885 75.710991,27.0152212 C75.5405405,27.3695575 75.404955,27.7161062 75.2964865,28.0548673 C75.188018,28.3936283 75.1376577,28.7168142 75.1376577,29.020531 C75.1376577,29.4955752 75.2538739,29.8304425 75.4901802,30.0329204 C75.7264865,30.2353982 76.0092793,30.3366372 76.3385586,30.3366372 C76.7027027,30.3366372 77.0862162,30.219823 77.492973,29.9861947 C77.8958559,29.7525664 78.2948649,29.4683186 78.6822523,29.1334513 C79.0696396,28.7985841 79.4299099,28.4481416 79.7630631,28.0821239 C80.0962162,27.7161062 80.3751351,27.3929204 80.5959459,27.1164602 L80.4216216,26.9139823 C80.2085586,27.1826549 79.9373874,27.4980531 79.6081081,27.860177 C79.2788288,28.2223009 78.9263063,28.5649558 78.5544144,28.8920354 C78.1825225,29.219115 77.8028829,29.4955752 77.4271171,29.7253097 C77.0474775,29.9550442 76.7027027,30.0679646 76.3927928,30.0679646 C76.2959459,30.0679646 76.1913514,30.0290265 76.0867568,29.9472566 C75.9782883,29.8654867 75.9279279,29.6980531 75.9279279,29.4371681 C75.9279279,29.2853097 75.9744144,29.0867257 76.0673874,28.8414159 C76.1603604,28.5961062 76.2843243,28.3274336 76.4392793,28.0353982 C76.5942342,27.7433628 76.7763063,27.4357522 76.9777477,27.1047788 C77.1830631,26.7738053 77.3922523,26.4467257 77.6053153,26.119646 C77.8183784,25.7925664 78.0314414,25.4771681 78.2445045,25.1656637 C78.4575676,24.8580531 78.6551351,24.5776991 78.8333333,24.3284956 L79.4066667,23.4835398 L79.3795495,23.4952212 C80.010991,23.1292035 80.685045,22.7437168 81.4017117,22.3426549 C82.1183784,21.9415929 82.8234234,21.5444248 83.5168468,21.1472566 C83.7221622,21.0304425 83.9623423,20.8863717 84.2451351,20.7111504 C84.5240541,20.5359292 84.7952252,20.3412389 85.0509009,20.1270796 C85.3104505,19.9129204 85.5273874,19.6831858 85.7133333,19.4417699 C85.8954054,19.200354 85.9883784,18.9511504 85.9883784,18.6902655 C85.9883784,18.5033628 85.9418919,18.3515044 85.8566667,18.2424779 C85.7675676,18.1295575 85.6552252,18.0477876 85.5235135,17.9893805 C85.3918018,17.9309735 85.2445946,17.8920354 85.0896396,17.8686726 C84.9346847,17.8453097 84.7874775,17.8336283 84.6557658,17.8336283 C84.1405405,17.8336283 83.6020721,17.9776991 83.0403604,18.2619469 C82.4786486,18.5500885 81.9014414,18.9589381 81.3048649,19.4962832 C80.7082883,20.0336283 80.0962162,20.68 79.4647748,21.439292 C78.8333333,22.1985841 78.1863964,23.0552212 77.5317117,24.0014159 C77.245045,24.2350442 76.9273874,24.5621239 76.570991,24.9865487 C76.2145946,25.4109735 75.8504505,25.8509735 75.4785586,26.3065487 L74.9904505,26.9178761 L74.9827027,26.9100885 C74.8045045,27.1437168 74.6185586,27.3734513 74.420991,27.599292 C74.2234234,27.8290265 74.0374775,28.039292 73.8592793,28.2378761 C73.6268468,28.4870796 73.3944144,28.7246018 73.1581081,28.9426549 C72.9218018,29.160708 72.6893694,29.3515044 72.4646847,29.5111504 C72.2361261,29.6707965 72.0230631,29.799292 71.8177477,29.8849558 C71.6124324,29.9745133 71.4264865,30.0173451 71.256036,30.0173451 C71.0972072,30.0173451 70.9887387,29.9939823 70.9345045,29.9511504 C70.8802703,29.9083186 70.8531532,29.8421239 70.8531532,29.7642478 C70.8531532,29.6669027 70.8841441,29.5461947 70.9383784,29.4099115 C70.9964865,29.2697345 71.0662162,29.1295575 71.1475676,28.9893805 C71.2289189,28.8453097 71.3141441,28.7051327 71.4032432,28.5649558 C71.4923423,28.4247788 71.5736937,28.3079646 71.6434234,28.2106195 C71.9572072,27.7550442 72.2748649,27.299469 72.6002703,26.8477876 C72.9256757,26.3961062 73.2588288,25.940531 73.5958559,25.4849558 C73.7469369,25.2785841 73.9018919,25.0761062 74.0645946,24.8736283 C74.2234234,24.6711504 74.3822523,24.4686726 74.5333333,24.2623009 L75.1376577,23.4718584 L73.4292793,23.4718584 C73.2975676,23.6042478 73.1116216,23.8028319 72.8830631,24.0637168 C72.6506306,24.3246018 72.3988288,24.6166372 72.1237838,24.9437168 C71.8487387,25.2707965 71.5620721,25.6173451 71.2637838,25.9833628 C71.0042342,26.3026549 70.7524324,26.6102655 70.5122523,26.9100885 L70.5122523,26.9100885 C70.4928829,26.9334513 70.4735135,26.960708 70.4541441,26.9840708 C70.4386486,27.0035398 70.4231532,27.0230088 70.4076577,27.0424779 L70.4076577,27.0424779 C70.3456757,27.120354 70.2836937,27.1982301 70.213964,27.2838938 C70.1016216,27.4162832 70.0009009,27.5447788 69.9118018,27.6576991 C69.3500901,28.319646 68.7031532,28.9348673 67.970991,29.5033628 C67.2388288,30.0718584 66.4640541,30.539115 65.6544144,30.9051327 C65.7512613,30.7727434 65.820991,30.6753982 65.8597297,30.6169912 C65.8984685,30.5585841 65.9565766,30.4690265 66.0263063,30.340531 C66.1696396,30.1341593 66.3013514,29.9355752 66.4253153,29.7447788 C66.5492793,29.5539823 66.6693694,29.3748673 66.7855856,29.2152212 C67.0606306,28.8141593 67.3434234,28.4092035 67.6262162,28.0081416 C67.909009,27.6070796 68.1801802,27.2293805 68.431982,26.8750442 C68.6837838,26.520708 68.9162162,26.1975221 69.1254054,25.9015929 C69.3345946,25.6056637 69.505045,25.3642478 69.6406306,25.1773451 L70.9345045,23.4757522 L69.2145045,23.4757522 C68.707027,24.2272566 68.2963964,24.8307965 67.9864865,25.2863717 C67.6765766,25.7419469 67.4286486,26.1040708 67.2465766,26.3649558 C67.0645045,26.6297345 66.9289189,26.820531 66.8398198,26.9412389 C66.7507207,27.0619469 66.6693694,27.1670796 66.5996396,27.2566372 L66.3865766,27.5253097 C66.2703604,27.6771681 66.158018,27.8251327 66.0456757,27.9692035 C65.9333333,28.1132743 65.8171171,28.2495575 65.6931532,28.3858407 C65.2941441,28.860885 64.8951351,29.2580531 64.5038739,29.5812389 C64.1126126,29.9044248 63.732973,30.0640708 63.3688288,30.0640708 C63.2448649,30.0640708 63.1828829,30.0056637 63.1828829,29.8888496 C63.1828829,29.7915044 63.2177477,29.6630088 63.2913514,29.5072566 C63.3610811,29.3515044 63.4540541,29.1723894 63.5663964,28.9776991 C63.6787387,28.7830088 63.8104505,28.5649558 63.9615315,28.3352212 C64.1126126,28.1015929 64.2675676,27.8640708 64.4302703,27.6226549 C64.9106306,26.8789381 65.3135135,26.2169912 65.6427928,25.6368142 C65.9720721,25.0566372 66.1347748,24.5776991 66.1347748,24.2 C66.1347748,23.9780531 66.0727928,23.7989381 65.9488288,23.6704425 C65.8248649,23.5419469 65.6505405,23.4757522 65.4297297,23.4757522 C65.298018,23.4757522 65.1469369,23.5380531 64.9764865,23.6626549 C64.806036,23.7872566 64.6278378,23.9585841 64.4341441,24.1727434 C64.2443243,24.3869027 64.039009,24.6361062 63.8220721,24.9164602 C63.6051351,25.1968142 63.3765766,25.500531 63.1363964,25.8237168 C62.9930631,26.0106195 62.841982,26.2130973 62.6754054,26.4272566 C62.5088288,26.6414159 62.3538739,26.8477876 62.2027928,27.0424779 L62.3771171,27.2449558 C62.5359459,27.0385841 62.6986486,26.8283186 62.8652252,26.6063717 C63.0279279,26.3883186 63.1867568,26.1780531 63.3378378,25.9833628 C63.5702703,25.679646 63.7910811,25.3915044 64.0002703,25.1189381 C64.2094595,24.8463717 64.4031532,24.6088496 64.5813514,24.4024779 C64.7595495,24.1961062 64.9183784,24.0364602 65.053964,23.919646 C65.1934234,23.8028319 65.3018919,23.7444248 65.3793694,23.7444248 C65.4413514,23.7444248 65.4723423,23.779469 65.4723423,23.8534513 C65.4723423,23.9352212 65.4297297,24.0481416 65.3445045,24.1961062 C65.2592793,24.3440708 65.1546847,24.5076106 65.022973,24.6906195 C64.8951351,24.8736283 64.7479279,25.0722124 64.5813514,25.2824779 C64.4147748,25.4927434 64.2559459,25.6952212 64.0932432,25.8938053 L63.4927928,26.6453097 C63.2874775,26.9061947 63.0976577,27.1631858 62.9194595,27.4162832 C62.7412613,27.6693805 62.5824324,27.9185841 62.4390991,28.16 C62.2957658,28.4014159 62.1872973,28.6311504 62.1059459,28.8492035 C62.0245946,29.0672566 61.9858559,29.2619469 61.9858559,29.4332743 C61.9858559,29.7019469 62.0865766,29.92 62.288018,30.0835398 C62.4894595,30.2470796 62.841982,30.3327434 63.3494595,30.3327434 C63.5625225,30.3327434 63.7755856,30.2860177 63.9886486,30.200354 C64.2017117,30.1107965 64.4147748,29.9861947 64.6278378,29.8265487 C64.8409009,29.6669027 65.053964,29.4761062 65.267027,29.2619469 C65.4800901,29.0477876 65.6892793,28.8141593 65.8945946,28.5649558 L65.9333333,28.5104425 L65.8132432,28.6856637 L64.9726126,30.0523894 C64.8409009,30.2743363 64.6936937,30.5157522 64.5387387,30.7688496 C64.3837838,31.0219469 64.224955,31.2789381 64.0661261,31.539823 L63.4656757,31.7267257 C63.2332432,31.8084956 62.9853153,31.8941593 62.718018,31.9876106 C62.4507207,32.0810619 62.1795495,32.1823009 61.9045045,32.2952212 C61.6294595,32.4081416 61.3544144,32.5288496 61.0754955,32.6651327 C60.8004505,32.7975221 60.537027,32.9415929 60.2890991,33.0934513 C59.9520721,33.299823 59.6537838,33.5217699 59.401982,33.759292 C59.1501802,33.9968142 58.9332432,34.2226549 58.755045,34.4368142 C58.5768468,34.6509735 58.4296396,34.8962832 58.3095495,35.1727434 C58.1894595,35.4492035 58.1313514,35.7256637 58.1313514,36.0060177 C58.1313514,36.3292035 58.2398198,36.5823009 58.4528829,36.7653097 C58.6659459,36.9483186 58.9216216,37.0417699 59.2121622,37.0417699 C59.4794595,37.0417699 59.739009,37.0028319 59.9869369,36.9210619 C60.2348649,36.839292 60.475045,36.7341593 60.7074775,36.6056637 C60.9399099,36.4771681 61.1607207,36.3292035 61.3699099,36.1617699 C61.5790991,35.9943363 61.7766667,35.8269027 61.9626126,35.659469 C62.2725225,35.3713274 62.5824324,35.059823 62.8845946,34.7132743 C63.1867568,34.3706195 63.4811712,34.0123894 63.763964,33.6385841 C64.0467568,33.2686726 64.3256757,32.8870796 64.592973,32.4976991 C64.8602703,32.1083186 65.1159459,31.7306195 65.3677477,31.3646018 C65.7938739,31.1854867 66.2277477,30.9674336 66.6616216,30.7065487 C67.0954955,30.4456637 67.5216216,30.1653097 67.9283784,29.8538053 M62.7528829,33.5762832 C62.3616216,34.140885 61.9781081,34.6431858 61.6062162,35.0909735 C61.4745045,35.2506195 61.3118018,35.4297345 61.1258559,35.6283186 C60.9399099,35.8230088 60.7384685,36.0099115 60.5254054,36.1773451 C60.3123423,36.3486726 60.0915315,36.4888496 59.8590991,36.6056637 C59.6266667,36.7224779 59.3981081,36.780885 59.1656757,36.780885 C58.9332432,36.780885 58.7472973,36.7069027 58.603964,36.5589381 C58.4606306,36.4109735 58.3909009,36.2357522 58.3909009,36.0293805 C58.3909009,35.760708 58.449009,35.5076106 58.5690991,35.2661947 C58.6891892,35.0247788 58.8247748,34.8067257 58.9758559,34.6081416 C59.1463063,34.4017699 59.3554955,34.1876106 59.6111712,33.9656637 C59.862973,33.7437168 60.1457658,33.5334513 60.4595495,33.3348673 C60.9747748,33.0116814 61.49,32.7546903 62.0013514,32.5561062 C62.5127027,32.3575221 63.0356757,32.1745133 63.5702703,32.0070796 L63.5431532,32.0070796 L63.6632432,31.979823 C63.6903604,31.9720354 63.7174775,31.9642478 63.7484685,31.960354 C63.7794595,31.9564602 63.8143243,31.9447788 63.8491892,31.9253097 C63.5121622,32.4626549 63.148018,33.0116814 62.7567568,33.5762832 L62.7528829,33.5762832 Z M85.4847748,19.3833628 C85.3027027,19.6169912 85.0857658,19.8350442 84.8300901,20.0414159 C84.5782883,20.2477876 84.3187387,20.4269027 84.0553153,20.5865487 C83.7918919,20.7423009 83.5827027,20.8669027 83.42,20.9564602 C82.8931532,21.2446018 82.3701802,21.5366372 81.8472072,21.8364602 C81.3203604,22.1362832 80.809009,22.4283186 80.3131532,22.7164602 L80.3247748,22.7164602 L79.6972072,23.0785841 C80.0536036,22.5139823 80.4448649,21.9415929 80.870991,21.3536283 C81.2971171,20.7695575 81.7387387,20.2361062 82.1997297,19.7571681 C82.6568468,19.2782301 83.1217117,18.8888496 83.5865766,18.5851327 C84.0553153,18.2814159 84.5008108,18.1295575 84.9269369,18.1295575 C85.1128829,18.1295575 85.2988288,18.1723894 85.4809009,18.2619469 C85.662973,18.3515044 85.7559459,18.4955752 85.7559459,18.6902655 C85.7559459,18.9238938 85.662973,19.1536283 85.4809009,19.3872566 L85.4847748,19.3833628 Z" id="Shape" fill="url(#linearGradient-11)"></path>
                <g id="Group-2" transform="translate(0.000000, 39.327434)" fill="#4B4F5F">
                    <polygon id="Path" points="2.83509185 0.103979224 4.41690275 0.103979224 2.46397467 2.21605721 4.5933355 4.56858715 2.93851794 4.56858715 1.28978427 2.6319741 1.2776165 2.6319741 1.2776165 4.56858715 0 4.56858715 0 0.103979224 1.2776165 0.103979224 1.2776165 1.94311175 1.28978427 1.94311175 2.83509185 0.103979224"></polygon>
                    <path d="M7.99422894,2.90491957 L6.93563241,2.90491957 L7.46493068,1.48170394 L7.47709845,1.48170394 L8.00031283,2.90491957 L8.00031283,2.90491957 L7.99422894,2.90491957 Z M8.34101056,3.79524167 L8.65737274,4.57508585 L10.0201637,4.57508585 L8.17066169,0.103979224 L6.77745132,0.103979224 L4.89144602,4.57508585 L6.24815306,4.57508585 L6.58885079,3.79524167 L8.34709445,3.79524167 L8.34101056,3.79524167 Z" id="Shape"></path>
                    <polygon id="Path" points="10.5494619 0.103979224 11.8270784 0.103979224 14.1632915 2.83343385 14.1754592 2.83343385 14.1754592 0.103979224 15.4530757 0.103979224 15.4530757 4.56858715 14.1754592 4.56858715 11.8392462 1.83263382 11.8270784 1.83263382 11.8270784 4.56858715 10.5494619 4.56858715 10.5494619 0.103979224"></polygon>
                    <path d="M19.0729891,2.90491957 L18.0083087,2.90491957 L18.537607,1.48170394 L18.5497748,1.48170394 L19.0729891,2.90491957 L19.0729891,2.90491957 L19.0729891,2.90491957 Z M19.4197708,3.79524167 L19.7361329,4.57508585 L21.0989239,4.57508585 L19.2494219,0.103979224 L17.8562115,0.103979224 L15.9702062,4.57508585 L17.3269133,4.57508585 L17.667611,3.79524167 L19.4258546,3.79524167 L19.4197708,3.79524167 Z" id="Shape"></path>
                    <polygon id="Path" points="22.8997547 3.58728322 24.4328945 3.58728322 24.4328945 4.56858715 21.6221382 4.56858715 21.6221382 0.103979224 22.8997547 0.103979224 22.8997547 3.58728322"></polygon>
                    <polygon id="Path" points="26.0451249 1.08528315 26.0451249 0.103979224 30.0726588 0.103979224 27.2558186 4.56858715 25.8504405 4.56858715 28.0953952 1.08528315 26.0451249 1.08528315"></polygon>
                    <polygon id="Path" points="36.0289248 0.103979224 37.2031152 3.17786503 37.2152829 3.17786503 38.3225506 0.103979224 39.873942 0.103979224 39.873942 4.57508585 38.839681 4.57508585 38.839681 1.41021822 38.8275133 1.41021822 37.5985679 4.57508585 36.7468235 4.57508585 35.5178782 1.43621303 35.5057104 1.43621303 35.5057104 4.57508585 34.4714494 4.57508585 34.4714494 0.103979224 36.0228409 0.103979224"></polygon>
                    <polygon id="Path" points="44.5220325 0.103979224 44.5220325 0.929314313 41.8755412 0.929314313 41.8755412 1.88462343 44.3030125 1.88462343 44.3030125 2.64497151 41.8755412 2.64497151 41.8755412 3.74325206 44.5767875 3.74325206 44.5767875 4.56858715 40.7743575 4.56858715 40.7743575 0.0974805224 44.5220325 0.0974805224"></polygon>
                    <path d="M47.4118794,0.103979224 C47.7343254,0.103979224 48.0385198,0.149470134 48.3122948,0.240451955 C48.5921536,0.331433776 48.8294253,0.467906507 49.0362775,0.656368851 C49.2370458,0.838332492 49.4013108,1.07228575 49.5108207,1.34523121 C49.6203307,1.61817667 49.6811696,1.94311175 49.6811696,2.31353773 C49.6811696,2.63847281 49.6324985,2.93741307 49.5412402,3.21685724 C49.4499819,3.4898027 49.3039685,3.73025466 49.115368,3.9317144 C48.9267675,4.13317415 48.6894958,4.28914298 48.4035531,4.40611961 C48.1176104,4.52309624 47.7890804,4.57508585 47.4057955,4.57508585 L45.2460152,4.57508585 L45.2460152,0.103979224 L47.4057955,0.103979224 L47.4118794,0.103979224 Z M47.3388727,3.74325206 C47.4970538,3.74325206 47.6552349,3.71725725 47.8012482,3.67176634 C47.9533454,3.62627543 48.0871909,3.54829101 48.2027848,3.44431179 C48.3183787,3.34033257 48.4157209,3.19736113 48.4826437,3.02839489 C48.5556503,2.85942866 48.5860698,2.65147021 48.5860698,2.40451955 C48.5860698,2.177065 48.5617342,1.97560525 48.5130631,1.79364161 C48.464392,1.61167797 48.3853014,1.45570913 48.2697076,1.3257351 C48.1601976,1.19576107 48.0081004,1.09828055 47.8255837,1.02679484 C47.6430671,0.955309119 47.4118794,0.922815612 47.1441883,0.922815612 L46.3593667,0.922815612 L46.3593667,3.73675336 L47.3449566,3.73675336 L47.3388727,3.74325206 Z" id="Shape"></path>
                    <polygon id="Path" points="49.8454346 0.103979224 51.0804639 0.103979224 52.2546543 1.87162603 53.4227608 0.103979224 54.6517062 0.103979224 52.7900364 2.85942866 52.7900364 4.57508585 51.6888527 4.57508585 51.6888527 2.83343385 49.8515185 0.103979224"></polygon>
                    <path d="M56.9757514,0.103979224 L58.8495889,4.57508585 L57.705818,4.57508585 L57.3286169,3.58078452 L55.4547794,3.58078452 L55.0593267,4.57508585 L53.952059,4.57508585 L55.8502321,0.103979224 L56.9818353,0.103979224 L56.9757514,0.103979224 Z M57.0426742,2.84643125 L56.4099498,1.20875848 L56.397782,1.20875848 L55.746806,2.84643125 L57.0426742,2.84643125 Z" id="Shape"></path>
                    <path d="M64.4569523,4.53609364 C64.2196807,4.62707546 63.9763251,4.67256637 63.7329696,4.67256637 C63.3496847,4.67256637 63.0029031,4.61407806 62.6987087,4.49710143 C62.3945142,4.3801248 62.1329071,4.21115857 61.919971,4.00320012 C61.7070349,3.79524167 61.5488538,3.54829101 61.4332599,3.26884685 C61.3237499,2.98940269 61.2629111,2.68396372 61.2629111,2.35902864 C61.2629111,2.03409357 61.3176661,1.71565719 61.4332599,1.42971433 C61.5427699,1.14377146 61.7070349,0.896820806 61.919971,0.682363657 C62.1329071,0.467906507 62.3884304,0.30543897 62.6987087,0.181963642 C63.0029031,0.0584883134 63.3496847,0 63.7329696,0 C63.9884929,0 64.2379323,0.0324935075 64.4812879,0.103979224 C64.7246434,0.17546494 64.9375795,0.272945463 65.1322639,0.409418194 C65.3269483,0.545890925 65.4851294,0.708358462 65.612891,0.903319507 C65.7406527,1.09828055 65.8136593,1.3257351 65.8440788,1.57918446 L64.7915662,1.57918446 C64.7246434,1.3257351 64.5968817,1.14377146 64.4143651,1.01379743 C64.2257646,0.890322104 64.0006607,0.825335089 63.7329696,0.825335089 C63.4835302,0.825335089 63.276678,0.870826 63.1002453,0.955309119 C62.9298964,1.03979224 62.7838831,1.15676887 62.680457,1.2997403 C62.5770309,1.44271173 62.4918565,1.60517927 62.4431854,1.79364161 C62.3945142,1.97560525 62.3701787,2.1705663 62.3701787,2.36552734 C62.3701787,2.56048839 62.3945142,2.73595333 62.4431854,2.91141827 C62.4918565,3.08688321 62.570947,3.24935075 62.680457,3.39232218 C62.789967,3.53529361 62.9298964,3.64577154 63.1002453,3.73675336 C63.276678,3.82123648 63.4835302,3.86672739 63.7329696,3.86672739 C64.0980029,3.86672739 64.3778618,3.78224427 64.5786301,3.61977673 C64.7793984,3.45730919 64.8949922,3.21685724 64.9254117,2.90491957 L63.8181441,2.90491957 L63.8181441,2.1705663 L65.9231693,2.1705663 L65.9231693,4.58808325 L65.2235222,4.58808325 L65.1140122,4.08118454 C64.9193278,4.30863909 64.7003078,4.46460792 64.4630362,4.55558974 L64.4569523,4.53609364 Z" id="Path"></path>
                    <path d="M69.4457405,0.103979224 C69.6708444,0.103979224 69.8716127,0.136472731 70.0541293,0.201459746 C70.236646,0.266446761 70.3887432,0.357428582 70.5165048,0.467906507 C70.6442665,0.578384433 70.7416087,0.708358462 70.8146154,0.857828597 C70.8815381,1.00729873 70.9180414,1.16326757 70.9180414,1.33873251 C70.9180414,1.59868057 70.8572026,1.82613512 70.7294409,2.02109616 C70.6077632,2.21605721 70.400911,2.35902864 70.1210521,2.45650916 L70.1210521,2.46950657 C70.2548976,2.50200007 70.3704915,2.55398969 70.455666,2.6254754 C70.5469243,2.69696112 70.6199309,2.77494554 70.6746859,2.87242606 C70.7294409,2.96340788 70.7720281,3.0673871 70.7963637,3.18436373 C70.8206992,3.29484166 70.8389509,3.41181828 70.8511187,3.52229621 C70.8511187,3.59378192 70.8572026,3.67826504 70.8632865,3.77574557 C70.8693703,3.87322609 70.8754542,3.97070661 70.887622,4.06818713 C70.8997898,4.16566766 70.9180414,4.26314818 70.942377,4.35413 C70.9667126,4.44511182 71.0092998,4.51659754 71.0579709,4.58158455 L69.9567871,4.58158455 C69.8959482,4.43861312 69.8594449,4.26964688 69.8472771,4.07468583 C69.8351094,3.87972479 69.8107738,3.69126245 69.7864383,3.5092988 C69.7499349,3.27534555 69.6708444,3.10637931 69.5491666,2.99590139 C69.4274889,2.88542346 69.2267206,2.83343385 68.9529456,2.83343385 L67.8517619,2.83343385 L67.8517619,4.58158455 L66.7505781,4.58158455 L66.7505781,0.110477925 L69.4518244,0.110477925 L69.4457405,0.103979224 Z M69.0563717,2.12507539 C69.311895,2.12507539 69.5004955,2.07308578 69.6221733,1.97560525 C69.7499349,1.87812473 69.8107738,1.71565719 69.8107738,1.48820264 C69.8107738,1.26074809 69.7499349,1.11127795 69.6221733,1.01379743 C69.4944116,0.91631691 69.3058111,0.864327298 69.0563717,0.864327298 L67.8517619,0.864327298 L67.8517619,2.12507539 L69.0563717,2.12507539 L69.0563717,2.12507539 Z" id="Shape"></path>
                    <path d="M75.4262025,4.23065467 C75.0490015,4.52309624 74.5257871,4.67256637 73.8565594,4.67256637 C73.1873317,4.67256637 72.6519496,4.52959494 72.2808324,4.23715337 C71.9097152,3.9447118 71.7211147,3.4963014 71.7211147,2.88542346 L71.7211147,0.103979224 L72.8222984,0.103979224 L72.8222984,2.88542346 C72.8222984,3.00889879 72.8344662,3.12587542 72.8588017,3.24285204 C72.8831373,3.35982867 72.9318084,3.46380789 73.0048151,3.55478972 C73.0778217,3.64577154 73.1812478,3.71725725 73.3150934,3.77574557 C73.4489389,3.83423388 73.6253716,3.86022869 73.8504755,3.86022869 C74.2459282,3.86022869 74.5136193,3.78224427 74.6657165,3.62627543 C74.8178137,3.4703066 74.8908204,3.22335594 74.8908204,2.89192216 L74.8908204,0.110477925 L75.9920041,0.110477925 L75.9920041,2.89192216 C75.9920041,3.4963014 75.8034036,3.9447118 75.4201186,4.24365207 L75.4262025,4.23065467 Z" id="Path"></path>
                    <path d="M79.2347165,0.103979224 C79.4719881,0.103979224 79.6910081,0.123475328 79.8856925,0.162467537 C80.0803769,0.201459746 80.2507258,0.25994806 80.3906552,0.344431179 C80.5305846,0.428914298 80.6400946,0.545890925 80.7191851,0.682363657 C80.7982757,0.825335089 80.834779,1.00080003 80.834779,1.20875848 C80.834779,1.43621303 80.780024,1.62467537 80.6644302,1.77414551 C80.5488363,1.92361564 80.3784874,2.04709097 80.1533836,2.14457149 C80.4636618,2.22255591 80.6948496,2.36552734 80.8469468,2.56048839 C80.999044,2.76194813 81.0781345,2.99590139 81.0781345,3.27534555 C81.0781345,3.5028001 81.0294634,3.69776115 80.9321212,3.86022869 C80.834779,4.02269622 80.7009335,4.15916895 80.5366685,4.26314818 C80.3724035,4.3671274 80.183803,4.44511182 79.9708669,4.49710143 C79.7579308,4.54909104 79.5389109,4.57508585 79.313807,4.57508585 L76.8863357,4.57508585 L76.8863357,0.103979224 L79.2468842,0.103979224 L79.2347165,0.103979224 Z M79.094787,1.91061824 C79.2894714,1.91061824 79.4537364,1.87162603 79.5814981,1.78714291 C79.7092597,1.70265979 79.7700986,1.56618706 79.7700986,1.37772472 C79.7700986,1.27374549 79.7518469,1.18926237 79.7092597,1.12427536 C79.6666725,1.05928834 79.6119175,1.00729873 79.5389109,0.968306522 C79.4659042,0.929314313 79.3868137,0.903319507 79.2955553,0.890322104 C79.204297,0.877324701 79.1069548,0.870826 79.0096126,0.870826 L77.9753516,0.870826 L77.9753516,1.91711694 L79.0887031,1.91711694 L79.094787,1.91061824 Z M79.1556259,3.80823907 C79.2651359,3.80823907 79.368562,3.80174037 79.4659042,3.78224427 C79.5632464,3.76274816 79.6484208,3.73025466 79.7275114,3.69126245 C79.800518,3.64577154 79.8613569,3.58728322 79.9039441,3.51579751 C79.9465314,3.43781309 79.9708669,3.34683127 79.9708669,3.22985464 C79.9708669,3.00240009 79.8978603,2.83343385 79.7518469,2.73595333 C79.6058336,2.63847281 79.4172331,2.58648319 79.1738776,2.58648319 L77.9753516,2.58648319 L77.9753516,3.81473777 L79.1556259,3.81473777 L79.1556259,3.80823907 Z" id="Shape"></path>
                    <path d="M85.4341984,4.23065467 C85.0569973,4.52309624 84.533783,4.67256637 83.8645553,4.67256637 C83.1953276,4.67256637 82.6599454,4.52959494 82.2888283,4.23715337 C81.9177111,3.9447118 81.7291106,3.4963014 81.7291106,2.88542346 L81.7291106,0.103979224 L82.8302943,0.103979224 L82.8302943,2.88542346 C82.8302943,3.00889879 82.8424621,3.12587542 82.8667976,3.24285204 C82.8911332,3.35982867 82.9398043,3.46380789 83.012811,3.55478972 C83.0858176,3.64577154 83.1892437,3.71725725 83.3230892,3.77574557 C83.4569348,3.83423388 83.6333675,3.86022869 83.8584714,3.86022869 C84.2539241,3.86022869 84.5216152,3.78224427 84.6737124,3.62627543 C84.8258096,3.4703066 84.8988163,3.22335594 84.8988163,2.89192216 L84.8988163,0.110477925 L86,0.110477925 L86,2.89192216 C86,3.4963014 85.8113995,3.9447118 85.4281145,4.24365207 L85.4341984,4.23065467 Z" id="Path"></path>
                </g>
            </g>
        </g>
    </g>
</svg>