<?xml version="1.0" encoding="UTF-8"?>
<svg width="138px" height="59px" viewBox="0 0 138 59" version="1.1" xmlns="http://www.w3.org/2000/svg" xmlns:xlink="http://www.w3.org/1999/xlink">
    <!-- Radyo7 - @Yekim -->
    <title>RADYO7</title>
    <defs>
        <path d="M0.170684211,0.0123473684 C0.170684211,0.0123473684 0.566526316,1.56157895 2.47419474,3.45544737 C3.87271579,4.84343684 4.47156316,6.17695263 4.47156316,6.17695263 L17.5688526,6.17695263 C17.5688526,6.17695263 10.8173842,16.7608263 6.36942632,28.9738263 L14.1631579,28.9738263 C20.6691316,9.56267368 27.7289211,0.0123473684 27.7289211,0.0123473684 L0.170684211,0.0123473684 Z" id="path-1"></path>
        <radialGradient cx="49.9910392%" cy="50.0336311%" fx="49.9910392%" fy="50.0336311%" r="45.508038%" gradientTransform="translate(0.499910,0.500336),scale(1.000000,0.951561),rotate(-0.000003),scale(1.000000,1.135153),translate(-0.499910,-0.500336)" id="radialGradient-3">
            <stop stop-color="#EB313D" offset="0%"></stop>
            <stop stop-color="#ED1C28" offset="52.53%"></stop>
            <stop stop-color="#B8283A" offset="100%"></stop>
        </radialGradient>
    </defs>
    <g id="Page-1" stroke="none" stroke-width="1" fill="none" fill-rule="evenodd">
        <g id="RADYO7logo.pdf">
            <g id="Clipped" transform="translate(95.147368, 15.252632)">
                <mask id="mask-2" fill="white">
                    <use xlink:href="#path-1"></use>
                </mask>
                <g id="SVGID_1_"></g>
                <rect id="Rectangle-path" fill="url(#radialGradient-3)" fill-rule="nonzero" mask="url(#mask-2)" x="0.170684211" y="0.0123473684" width="27.5586" height="28.9614789"></rect>
            </g>
            <g id="Group" fill="#4B4F5F" fill-rule="nonzero">
                <g id="Clipped" transform="translate(82.800000, 0.000000)">
                    <path d="M0.0995052632,17.6578263 C2.34345789,12.0582947 6.54955263,7.18471579 11.8745368,4.06845789 C17.2071474,0.974715789 23.6179737,-0.378410526 29.8174421,0.463389474 C31.3779316,0.611921053 32.8933895,1.01103158 34.4172,1.38544737 L36.6360947,2.1666 C37.3816579,2.41463684 38.0665737,2.80684737 38.7856263,3.12243158 C41.6019158,4.50678947 44.2050316,6.33020526 46.4754947,8.51677895 C48.7107316,10.7400316 50.5657421,13.3337053 52.0009421,16.1394632 C52.3288737,16.8563368 52.7301632,17.5419789 52.9938158,18.2868158 L53.8145526,20.5082526 C54.2252842,22.0317 54.6599842,23.5536947 54.8433789,25.1261684 C55.7683421,31.3786579 54.5230737,37.8922579 51.5041421,43.4224263 C49.9491,46.1664474 47.9517316,48.6410053 45.6416842,50.7614842 C44.5039105,51.8469632 43.2234158,52.7595789 41.9411053,53.6587579 L39.9121421,54.8441053 C39.2323105,55.2305053 38.4994579,55.5174 37.7960211,55.8565895 C34.9256211,57.0858789 31.8776368,57.9004421 28.7773579,58.1699053 C27.2248579,58.2261947 25.6741737,58.3115368 24.1296632,58.1840684 C22.5884211,58.0438895 21.0551684,57.8259947 19.5571421,57.4537579 C13.5643105,55.9775211 8.14236316,52.4912053 4.43379474,47.7273 C8.60284737,52.0801105 14.0523947,55.0776158 19.8444,56.1282316 C25.6258737,57.2522053 31.6848,56.3806263 36.8997474,53.8962632 C42.1462895,51.4275158 46.4664158,47.2021737 49.2097105,42.1669895 C51.8840053,37.0962158 52.9938158,31.1894526 52.1095263,25.5172895 C51.9577263,24.0893526 51.5666053,22.7100789 51.2099842,21.3235421 L50.4789474,19.3040211 C50.2479789,18.6252789 49.8815526,18.0031895 49.5913895,17.3487789 C48.3127105,14.7852474 46.6200316,12.4359789 44.6321053,10.3619842 C42.6042316,8.32575789 40.2596842,6.60693158 37.7045053,5.28104211 C37.0511842,4.98034737 36.4309105,4.59939474 35.7507158,4.36007368 L33.7290158,3.58872632 C32.3413895,3.20014737 30.9548526,2.77525263 29.5156579,2.58967895 C23.7999158,1.63312105 17.7584211,2.57878421 12.5231368,5.25162632 C7.26787895,7.9074 2.89727368,12.3215842 0.0995052632,17.6578263" id="Shape"></path>
                </g>
                <g id="Clipped" transform="translate(0.000000, 14.889474)">
                    <path d="M0.168868421,0.272368421 L12.2979789,0.272368421 C16.6573263,0.272368421 19.8789,2.28135789 19.8789,8.9148 C19.8789,15.7755789 16.9983316,16.6093895 15.4443789,17.1021947 L20.7130737,28.0187211 L14.7238737,28.0187211 L10.1375526,17.5194632 L5.47533158,16.9888895 L5.47533158,28.0187211 L0.168868421,28.0187211 L0.168868421,0.272368421 Z M11.8055368,12.8191105 C13.6249579,12.8191105 14.5346684,12.2881737 14.5346684,8.9148 C14.5346684,5.76876316 13.4731579,4.97272105 11.8055368,4.97272105 L5.51346316,4.97272105 L5.51346316,12.8191105 L11.8055368,12.8191105 Z" id="Shape"></path>
                </g>
                <g id="Clipped" transform="translate(20.700000, 22.152632)">
                    <path d="M0.164873684,13.7429842 C0.164873684,10.7868789 1.75695789,8.20882105 6.07817368,8.20882105 C6.07817368,8.20882105 11.9911105,8.24695263 11.9911105,8.20882105 C11.9911105,8.20882105 12.0288789,6.95810526 11.9911105,6.92033684 C11.9911105,4.76027368 10.9677316,4.45667368 9.30011053,4.45667368 C7.51845789,4.45667368 2.4771,4.76027368 0.847247368,4.87357895 L0.847247368,1.57574211 C3.50084211,0.552363158 6.26774211,0.249126316 10.0202526,0.249126316 C14.3411053,0.249126316 17.2975737,1.72717895 17.2975737,6.73076842 L17.2975737,20.7555632 L13.0903895,20.7555632 L11.9911105,18.5570053 C11.7637737,18.9739105 8.92097368,21.0584368 5.85047368,20.9829 C1.98465789,20.8695947 0.164873684,18.2537684 0.164873684,15.6386684 L0.164873684,13.7429842 Z M7.36702105,16.7372211 C9.56521579,16.7372211 11.9911105,15.1458632 11.9911105,15.1458632 L11.9911105,11.4688895 L7.10155263,11.8476632 C5.69903684,11.9616947 5.4717,13.0224789 5.4717,13.8951474 L5.4717,14.8800316 C5.47133684,16.5480158 6.38141053,16.7372211 7.36702105,16.7372211 Z" id="Shape"></path>
                </g>
                <g id="Clipped" transform="translate(39.221053, 13.073684)">
                    <path d="M6.66104211,9.40397368 C8.36679474,9.40397368 10.9063579,9.85901053 12.7635474,10.7305895 L12.7635474,0.0795315789 L18.0703737,0.0795315789 L18.0703737,29.8345105 L13.6736211,29.8345105 L12.7635474,27.7877526 C11.4750632,28.8107684 9.04880526,30.0618474 6.66104211,30.0618474 C1.73335263,30.0618474 0.103863158,26.1201316 0.103863158,19.8661895 C0.104226316,13.4219526 1.08947368,9.40397368 6.66104211,9.40397368 M8.06392105,25.5132947 C10.0351421,25.5132947 11.6272263,25.0204895 12.7639105,24.3003474 L12.7639105,14.3313 C11.3617579,13.8010895 9.88334211,13.5733895 8.06392105,13.5733895 C6.35816842,13.5733895 5.41068947,14.5212316 5.41068947,19.6758947 C5.41032632,24.1489105 6.32003684,25.5132947 8.06392105,25.5132947" id="Shape"></path>
                </g>
                <g id="Clipped" transform="translate(57.742105, 22.515789)">
                    <path d="M5.87988947,0.265105263 L9.36729474,14.3654368 C9.78383684,15.9578842 11.0730474,15.8057211 11.3759211,15.8434895 L15.3935368,0.265105263 L20.9277,0.265105263 L13.9532526,26.7600158 L11.1863526,30.6265579 L7.39571053,30.6265579 L10.2385105,20.3920421 C7.43384211,20.3920421 5.23528421,18.9898895 4.24967368,15.2755105 L0.307957895,0.265105263 L5.87988947,0.265105263 Z" id="Shape"></path>
                </g>
                <g id="Clipped" transform="translate(78.078947, 22.515789)">
                    <path d="M9.24563684,0.0755368421 C16.1823158,0.0755368421 18.4186421,2.61546316 18.4186421,10.6132895 C18.4186421,18.0801789 16.2956211,20.5816105 9.24563684,20.5816105 C2.30859474,20.5816105 0.0729947368,17.8150737 0.0729947368,10.6132895 C0.0729947368,2.3874 2.46075789,0.0755368421 9.24563684,0.0755368421 M9.24563684,16.2985263 C12.2395105,16.2985263 13.1118158,15.9197526 13.1118158,10.6132895 C13.1118158,4.96545789 12.4294421,4.32121579 9.24563684,4.32121579 C6.09996316,4.32121579 5.37945789,4.96545789 5.37945789,10.6132895 C5.37909474,15.8053579 6.44060526,16.2985263 9.24563684,16.2985263" id="Shape"></path>
                </g>
            </g>
        </g>
    </g>
</svg>